<svg width="24" height="24" viewBox="0 0 24 24"  xmlns="http://www.w3.org/2000/svg">
<path d="M16.5452 0.704987C16.7558 0.915925 16.8742 1.20186 16.8742 1.49999C16.8742 1.79811 16.7558 2.08405 16.5452 2.29499L6.84016 12L16.5452 21.705C16.6557 21.808 16.7443 21.9322 16.8058 22.0702C16.8673 22.2082 16.9004 22.3571 16.903 22.5082C16.9057 22.6593 16.8779 22.8093 16.8213 22.9494C16.7648 23.0895 16.6805 23.2167 16.5737 23.3235C16.4669 23.4304 16.3396 23.5146 16.1996 23.5712C16.0595 23.6278 15.9094 23.6555 15.7584 23.6529C15.6073 23.6502 15.4583 23.6171 15.3203 23.5557C15.1823 23.4942 15.0581 23.4055 14.9552 23.295L3.66016 12L14.9552 0.704987C15.1661 0.494311 15.452 0.375977 15.7502 0.375977C16.0483 0.375977 16.3342 0.494311 16.5452 0.704987Z" />
</svg>
