<svg width="24" height="24" viewBox="0 0 24 24" fill="none" xmlns="http://www.w3.org/2000/svg">
<path d="M3 5.625C3 4.176 4.176 3 5.625 3H18.375C19.824 3 21 4.176 21 5.625V15.375C21 16.0712 20.7234 16.7389 20.2312 17.2312C19.7389 17.7234 19.0712 18 18.375 18H5.625C4.92881 18 4.26113 17.7234 3.76884 17.2312C3.27656 16.7389 3 16.0712 3 15.375V5.625ZM5.625 5.25C5.52554 5.25 5.43016 5.28951 5.35984 5.35984C5.28951 5.43016 5.25 5.52554 5.25 5.625V15.375C5.25 15.582 5.418 15.75 5.625 15.75H18.375C18.4745 15.75 18.5698 15.7105 18.6402 15.6402C18.7105 15.5698 18.75 15.4745 18.75 15.375V5.625C18.75 5.52554 18.7105 5.43016 18.6402 5.35984C18.5698 5.28951 18.4745 5.25 18.375 5.25H5.625ZM0.375 22.875C0.375 22.5766 0.493526 22.2905 0.704505 22.0795C0.915483 21.8685 1.20163 21.75 1.5 21.75H22.5C22.7984 21.75 23.0845 21.8685 23.2955 22.0795C23.5065 22.2905 23.625 22.5766 23.625 22.875C23.625 23.1734 23.5065 23.4595 23.2955 23.6705C23.0845 23.8815 22.7984 24 22.5 24H1.5C1.20163 24 0.915483 23.8815 0.704505 23.6705C0.493526 23.4595 0.375 23.1734 0.375 22.875Z" fill="black"/>
</svg>
