<svg width="24" height="24" viewBox="0 0 24 24" xmlns="http://www.w3.org/2000/svg">
<path d="M2.79303 8.04302C2.98056 7.85555 3.23487 7.75023 3.50003 7.75023C3.76519 7.75023 4.0195 7.85555 4.20703 8.04302L12 15.836L19.793 8.04302C19.8853 7.94751 19.9956 7.87133 20.1176 7.81892C20.2396 7.76651 20.3709 7.73892 20.5036 7.73777C20.6364 7.73662 20.7681 7.76192 20.891 7.8122C21.0139 7.86248 21.1255 7.93673 21.2194 8.03063C21.3133 8.12452 21.3876 8.23617 21.4379 8.35907C21.4881 8.48196 21.5134 8.61364 21.5123 8.74642C21.5111 8.8792 21.4835 9.01042 21.4311 9.13242C21.3787 9.25443 21.3025 9.36477 21.207 9.45702L12 18.664L2.79303 9.45702C2.60556 9.26949 2.50024 9.01518 2.50024 8.75002C2.50024 8.48486 2.60556 8.23055 2.79303 8.04302Z"/>
</svg>
