<svg width="24" height="24" viewBox="0 0 24 24"  xmlns="http://www.w3.org/2000/svg">
<path d="M0.704987 16.5449C0.915925 16.7556 1.20186 16.8739 1.49999 16.8739C1.79811 16.8739 2.08405 16.7556 2.29499 16.5449L12 6.83991L21.705 16.5449C21.808 16.6554 21.9322 16.7441 22.0702 16.8056C22.2082 16.8671 22.3571 16.9001 22.5082 16.9028C22.6593 16.9055 22.8093 16.8777 22.9494 16.8211C23.0895 16.7645 23.2167 16.6803 23.3235 16.5735C23.4304 16.4666 23.5146 16.3394 23.5712 16.1993C23.6278 16.0592 23.6555 15.9092 23.6529 15.7581C23.6502 15.6071 23.6171 15.4581 23.5557 15.3201C23.4942 15.1821 23.4055 15.0579 23.295 14.9549L12 3.65991L0.704987 14.9549C0.494311 15.1659 0.375977 15.4518 0.375977 15.7499C0.375977 16.048 0.494311 16.334 0.704987 16.5449Z" />
</svg>
