<svg width="24" height="24" viewBox="0 0 24 24"  xmlns="http://www.w3.org/2000/svg">
<g clip-path="url(#clip0_8_24)">
<path d="M24 12.0001C23.9996 9.70689 23.3422 7.46183 22.1056 5.53067C20.8689 3.59951 19.1048 2.06313 17.0221 1.10341C14.9394 0.143695 12.6254 -0.199171 10.3538 0.115405C8.08235 0.429982 5.94855 1.38883 4.20505 2.87843C2.46156 4.36803 1.18139 6.32601 0.516104 8.52056C-0.149185 10.7151 -0.171736 13.0543 0.451122 15.2613C1.07398 17.4683 2.31616 19.4506 4.03061 20.9735C5.74506 22.4965 7.85999 23.4963 10.125 23.8546V15.4696H7.0785V12.0001H10.125V9.35557C10.125 6.34807 11.916 4.68757 14.658 4.68757C15.9705 4.68757 17.343 4.92157 17.343 4.92157V7.87507H15.831C14.34 7.87507 13.875 8.80057 13.875 9.75007V12.0001H17.2035L16.671 15.4696H13.875V23.8546C16.6976 23.4074 19.268 21.9679 21.124 19.7949C22.9801 17.6218 23.9998 14.8579 24 12.0001Z" />
</g>
<defs>
<clipPath id="clip0_8_24">
<rect width="24" height="24" fill="white"/>
</clipPath>
</defs>
</svg>
