<svg width="24" height="24" viewBox="0 0 24 24"  xmlns="http://www.w3.org/2000/svg">
<path d="M2.53521 3.0001C3.81684 1.79201 5.51335 1.12204 7.2746 1.12846C9.03585 1.13488 10.7274 1.8172 12.0002 3.0346C12.7659 2.30592 13.6894 1.76363 14.6988 1.44989C15.7082 1.13614 16.7763 1.05939 17.8202 1.2256H17.8232C19.2133 1.45314 20.501 2.09909 21.5146 3.07728C22.5282 4.05548 23.2194 5.31944 23.4962 6.7006V6.7051C23.696 7.71736 23.6633 8.76177 23.4006 9.75956C23.1379 10.7573 22.6521 11.6825 21.9797 12.4651L14.0252 21.9436C13.6508 22.3881 13.1406 22.6971 12.5732 22.8229C12.0059 22.9486 11.4129 22.8842 10.8857 22.6396C10.5362 22.477 10.2264 22.24 9.97821 21.9451L2.02221 12.4636C0.876617 11.122 0.290787 9.3912 0.386002 7.62959C0.481217 5.86798 1.25018 4.21043 2.53371 3.0001H2.53521ZM7.27221 3.3781C6.38654 3.3736 5.51822 3.62361 4.77054 4.09838C4.02286 4.57315 3.4273 5.25271 3.05471 6.0562C2.68211 6.8597 2.54817 7.75332 2.66881 8.63074C2.78945 9.50817 3.15959 10.3325 3.73521 11.0056L3.74271 11.0131L11.7002 20.4961C11.7561 20.5618 11.8319 20.6075 11.9161 20.6261C12.0003 20.6448 12.0883 20.6355 12.1667 20.5996C12.2187 20.5754 12.2648 20.54 12.3017 20.4961L20.2697 11.0011C20.721 10.4771 21.0473 9.85737 21.224 9.18877C21.4007 8.52017 21.4232 7.82016 21.2897 7.1416C21.1027 6.20999 20.6364 5.35743 19.9528 4.69743C19.2692 4.03744 18.4008 3.6013 17.4632 3.4471C16.76 3.33528 16.0404 3.38758 15.3608 3.59991C14.6811 3.81224 14.0597 4.17885 13.5452 4.6711L13.5347 4.6816C13.1181 5.06929 12.5701 5.28481 12.001 5.28481C11.4318 5.28481 10.8839 5.06929 10.4672 4.6816L10.4537 4.6696C9.59834 3.84663 8.45919 3.3842 7.27221 3.3781Z" />
</svg>
