<svg width="24" height="24" viewBox="0 0 24 24"  xmlns="http://www.w3.org/2000/svg">
<path d="M23.5858 6.33005C23.3265 5.04096 22.6806 3.86148 21.7341 2.94874C20.7876 2.036 19.5855 1.43334 18.2878 1.22105C17.3128 1.06564 16.3151 1.13776 15.3727 1.4318C14.4302 1.72584 13.5684 2.23382 12.8548 2.91605C12.6225 3.13209 12.317 3.25218 11.9998 3.25218C11.6826 3.25218 11.3771 3.13209 11.1448 2.91605C9.95995 1.77002 8.37902 1.12466 6.73064 1.11414C5.08225 1.10362 3.49322 1.72875 2.29383 2.85957C1.09445 3.99039 0.376976 5.53992 0.290558 7.18607C0.204139 8.83223 0.75542 10.4484 1.82981 11.6986L10.7038 22.2736C10.8626 22.4625 11.0609 22.6144 11.2846 22.7187C11.5084 22.8229 11.7522 22.8769 11.9991 22.8769C12.2459 22.8769 12.4897 22.8229 12.7135 22.7187C12.9372 22.6144 13.1355 22.4625 13.2943 22.2736L22.1683 11.6986C22.7958 10.9702 23.2495 10.1086 23.4951 9.17908C23.7407 8.24954 23.7717 7.27634 23.5858 6.33305V6.33005Z" />
</svg>
