<svg width="24" height="24" viewBox="0 0 24 24" fill="none" xmlns="http://www.w3.org/2000/svg">
<g clip-path="url(#clip0_8_11)">
<path d="M23.8975 0.681217C23.7043 0.238807 23.3699 0.0175724 22.8928 0.017334H1.10671C0.630202 0.017334 0.29534 0.238807 0.102423 0.681217C-0.0903754 1.14628 -0.0110266 1.54368 0.340827 1.87264L8.73219 10.2638V18.5358C8.73219 18.8312 8.84003 19.0861 9.05554 19.3021L13.4126 23.659C13.617 23.8744 13.8722 23.9826 14.1787 23.9826C14.3147 23.9826 14.4565 23.954 14.6041 23.8973C15.0468 23.7043 15.2682 23.3697 15.2682 22.8931V10.2638L23.6592 1.8727C24.0112 1.54374 24.0904 1.14646 23.8975 0.681217Z" fill="black"/>
</g>
<defs>
<clipPath id="clip0_8_11">
<rect width="24" height="24" fill="white"/>
</clipPath>
</defs>
</svg>
