<svg width="24" height="24" viewBox="0 0 24 24" fill="none" xmlns="http://www.w3.org/2000/svg">
<path d="M9.795 14.205C10.0057 14.4159 10.124 14.7019 10.124 15C10.124 15.2981 10.0057 15.5841 9.795 15.795L5.715 19.875H7.242C7.54037 19.875 7.82652 19.9935 8.0375 20.2045C8.24847 20.4155 8.367 20.7016 8.367 21C8.367 21.2984 8.24847 21.5845 8.0375 21.7955C7.82652 22.0065 7.54037 22.125 7.242 22.125H1.875V16.7565C1.875 16.4581 1.99353 16.172 2.2045 15.961C2.41548 15.75 2.70163 15.6315 3 15.6315C3.29837 15.6315 3.58452 15.75 3.7955 15.961C4.00647 16.172 4.125 16.4581 4.125 16.7565V18.2835L8.205 14.2035C8.41594 13.9928 8.70187 13.8745 9 13.8745C9.29813 13.8745 9.58406 13.9928 9.795 14.2035V14.205ZM14.205 9.795C13.9943 9.58406 13.876 9.29813 13.876 9C13.876 8.70187 13.9943 8.41594 14.205 8.205L18.285 4.125H16.758C16.6103 4.125 16.464 4.0959 16.3275 4.03936C16.191 3.98283 16.067 3.89996 15.9625 3.7955C15.858 3.69103 15.7752 3.56701 15.7186 3.43052C15.6621 3.29403 15.633 3.14774 15.633 3C15.633 2.85226 15.6621 2.70597 15.7186 2.56948C15.7752 2.43299 15.858 2.30897 15.9625 2.2045C16.067 2.10004 16.191 2.01717 16.3275 1.96064C16.464 1.9041 16.6103 1.875 16.758 1.875H22.125V7.2435C22.125 7.54187 22.0065 7.82802 21.7955 8.039C21.5845 8.24997 21.2984 8.3685 21 8.3685C20.7016 8.3685 20.4155 8.24997 20.2045 8.039C19.9935 7.82802 19.875 7.54187 19.875 7.2435V5.715L15.795 9.795C15.5841 10.0057 15.2981 10.124 15 10.124C14.7019 10.124 14.4159 10.0057 14.205 9.795Z" fill="black"/>
</svg>
