<svg width="24" height="24" viewBox="0 0 24 24" fill="none" xmlns="http://www.w3.org/2000/svg">
<g clip-path="url(#clip0_8_54)">
<path d="M5.77367 15.0511C5.74217 14.3536 5.81267 13.6561 5.98217 12.9796H2.50367C2.71817 12.5251 3.06617 12.1456 3.50117 11.8936L4.88417 11.0956C5.19311 10.9171 5.45928 10.6733 5.66404 10.3811C5.8688 10.089 6.00718 9.75559 6.06949 9.40431C6.1318 9.05303 6.11653 8.69238 6.02474 8.34762C5.93296 8.00287 5.76689 7.68236 5.53817 7.40856C5.12654 6.96276 4.87621 6.39185 4.82717 5.78706C4.81217 5.50206 4.84217 5.21706 4.91267 4.94256C4.98429 4.71 5.10545 4.49571 5.26781 4.31445C5.43016 4.13319 5.62987 3.98926 5.85317 3.89256C6.07693 3.79683 6.31779 3.74748 6.56117 3.74748C6.80455 3.74748 7.0454 3.79683 7.26917 3.89256C7.49267 3.99006 7.69217 4.13406 7.85717 4.31406C8.01917 4.49406 8.13917 4.70856 8.21267 4.93956C8.28617 5.21406 8.31467 5.49756 8.29817 5.78106C8.24958 6.38759 7.99866 6.96022 7.58567 7.40706C7.25346 7.79952 7.05607 8.28829 7.02259 8.80138C6.9891 9.31448 7.12129 9.82476 7.39967 10.2571C7.93967 9.67506 8.58767 9.20406 9.30767 8.86656V8.84406C10.0277 8.02506 10.4597 6.99456 10.5392 5.90706C10.5729 5.33353 10.5043 4.75858 10.3367 4.20906C10.0717 3.41621 9.56413 2.72674 8.88578 2.23821C8.20742 1.74968 7.39263 1.48682 6.55667 1.48682C5.72071 1.48682 4.90591 1.74968 4.22756 2.23821C3.5492 2.72674 3.04164 3.41621 2.77667 4.20906C2.61017 4.75956 2.54117 5.33406 2.57417 5.90856C2.65367 6.99456 3.08567 8.02356 3.80567 8.84106C3.8242 8.86269 3.8376 8.88822 3.84487 8.91575C3.85214 8.94329 3.8531 8.97211 3.84767 9.00006C3.84293 9.02837 3.83201 9.05528 3.81567 9.07887C3.79934 9.10247 3.77799 9.12217 3.75317 9.13656L2.37017 9.93456C1.64456 10.3591 1.04318 10.9668 0.626204 11.6967C0.209226 12.4267 -0.00872264 13.2534 -0.00583097 14.0941V15.2191H5.79317C5.79467 15.1696 5.77817 15.1126 5.77367 15.0511ZM21.6257 9.95106L20.2427 9.15306C20.2177 9.13867 20.1962 9.119 20.1796 9.09542C20.163 9.07184 20.1518 9.04493 20.1467 9.01656C20.142 8.99001 20.1433 8.96275 20.1506 8.93678C20.1579 8.91082 20.1709 8.88682 20.1887 8.86656C20.9087 8.04756 21.3407 7.01706 21.4202 5.92956C21.4526 5.35459 21.384 4.77839 21.2177 4.22706C21.0433 3.70095 20.7602 3.21739 20.3868 2.8078C20.0133 2.3982 19.558 2.07173 19.0502 1.84956C18.2846 1.51295 17.4329 1.42452 16.6145 1.5967C15.7961 1.76888 15.0522 2.19301 14.4872 2.80956C14.1138 3.22024 13.8307 3.70467 13.6562 4.23156C13.4912 4.78206 13.4222 5.35656 13.4552 5.93106C13.5347 7.01706 13.9667 8.04606 14.6867 8.86356C14.6942 8.87256 14.6867 8.88006 14.6867 8.89056C15.4067 9.22806 16.0532 9.70056 16.5947 10.2811C16.8753 9.84755 17.0087 9.33507 16.9749 8.81974C16.9411 8.30441 16.742 7.81373 16.4072 7.42056C15.9955 6.97476 15.7452 6.40385 15.6962 5.79906C15.6812 5.51406 15.7097 5.22906 15.7817 4.95456C15.8533 4.722 15.9744 4.50771 16.1368 4.32645C16.2992 4.14519 16.4989 4.00126 16.7222 3.90456C16.9459 3.80883 17.1868 3.75948 17.4302 3.75948C17.6736 3.75948 17.9144 3.80883 18.1382 3.90456C18.3617 4.00206 18.5612 4.14606 18.7262 4.32606C18.8867 4.50606 19.0067 4.71606 19.0802 4.94556C19.1552 5.22156 19.1852 5.50806 19.1672 5.79306C19.1186 6.39959 18.8677 6.97222 18.4547 7.41906C18.2271 7.69321 18.0621 8.0137 17.9712 8.35817C17.8802 8.70265 17.8655 9.06282 17.928 9.41357C17.9906 9.76431 18.1289 10.0972 18.3333 10.389C18.5378 10.6808 18.8034 10.9245 19.1117 11.1031L20.4947 11.9011C20.9297 12.1546 21.2747 12.5326 21.4907 12.9871H18.0122C18.1817 13.6651 18.2522 14.3641 18.2207 15.0616C18.2207 15.1216 18.2012 15.1786 18.1952 15.2371H23.9942V14.1121C23.999 13.2707 23.7826 12.4429 23.3666 11.7115C22.9507 10.9802 22.3498 10.371 21.6242 9.94506L21.6257 9.95106ZM16.1882 18.9511L14.8052 18.1531C14.7685 18.1319 14.7398 18.0993 14.7233 18.0604C14.7068 18.0214 14.7034 17.9781 14.7137 17.9371C14.7208 17.9111 14.7336 17.887 14.7512 17.8666C15.4711 17.0482 15.9036 16.0167 15.9827 14.9296C16.0164 14.356 15.9478 13.7811 15.7802 13.2316C15.5155 12.4382 15.008 11.7481 14.3295 11.2592C13.651 10.7702 12.8358 10.5071 11.9994 10.5071C11.1631 10.5071 10.3479 10.7702 9.66935 11.2592C8.99081 11.7481 8.48329 12.4382 8.21867 13.2316C8.05367 13.7821 7.98467 14.3566 8.01767 14.9311C8.09717 16.0171 8.52917 17.0461 9.24917 17.8636C9.2676 17.8852 9.28094 17.9108 9.28821 17.9383C9.29548 17.9658 9.29649 17.9946 9.29117 18.0226C9.28663 18.0509 9.27579 18.0779 9.25943 18.1016C9.24308 18.1252 9.22163 18.1448 9.19667 18.1591L7.81367 18.9571C7.08806 19.3816 6.48668 19.9893 6.0697 20.7192C5.65273 21.4492 5.43478 22.2759 5.43767 23.1166V24.2416H18.5627V23.1166C18.5678 22.274 18.3511 21.4449 17.9343 20.7127C17.5175 19.9804 16.9153 19.3708 16.1882 18.9451V18.9511ZM7.93817 21.9856C8.15267 21.5311 8.50067 21.1516 8.93567 20.8996L10.3187 20.1016C10.6278 19.9233 10.8942 19.6796 11.0991 19.3874C11.304 19.0953 11.4425 18.7618 11.5048 18.4105C11.5671 18.0591 11.5518 17.6984 11.4599 17.3536C11.3679 17.0088 11.2016 16.6883 10.9727 16.4146C10.561 15.9688 10.3107 15.3979 10.2617 14.7931C10.2467 14.5081 10.2752 14.2231 10.3472 13.9486C10.4188 13.716 10.5399 13.5017 10.7023 13.3205C10.8647 13.1392 11.0644 12.9953 11.2877 12.8986C11.5114 12.8028 11.7523 12.7535 11.9957 12.7535C12.2391 12.7535 12.4799 12.8028 12.7037 12.8986C12.9272 12.9961 13.1267 13.1401 13.2917 13.3201C13.4537 13.5001 13.5737 13.7146 13.6472 13.9456C13.7207 14.2201 13.7492 14.5036 13.7327 14.7871C13.6841 15.3936 13.4332 15.9662 13.0202 16.4131C12.7924 16.6871 12.6271 17.0076 12.536 17.3521C12.4449 17.6966 12.4302 18.0569 12.4927 18.4077C12.5553 18.7585 12.6937 19.0915 12.8983 19.3833C13.1029 19.6751 13.3687 19.9187 13.6772 20.0971L15.0602 20.8951C15.4952 21.1486 15.8402 21.5266 16.0562 21.9811L7.93817 21.9856Z" fill="black"/>
</g>
<defs>
<clipPath id="clip0_8_54">
<rect width="24" height="24" fill="white"/>
</clipPath>
</defs>
</svg>
