<svg width="24" height="24" viewBox="0 0 24 24" fill="none" xmlns="http://www.w3.org/2000/svg">
<g clip-path="url(#clip0_8_16)">
<path d="M12 2.16007C15.204 2.16007 15.5835 2.17357 16.8495 2.23057C18.0195 2.28457 18.654 2.47957 19.077 2.64457C19.599 2.83657 20.0715 3.14257 20.4585 3.54157C20.8575 3.92857 21.1635 4.40107 21.357 4.92307C21.522 5.34607 21.717 5.98207 21.7695 7.15057C21.828 8.41657 21.84 8.79607 21.84 12.0001C21.84 15.2041 21.828 15.5836 21.7695 16.8481C21.717 18.0181 21.5205 18.6541 21.357 19.0771C21.157 19.5943 20.8511 20.064 20.459 20.4561C20.0669 20.8482 19.5972 21.154 19.08 21.3541C18.657 21.5191 18.021 21.7141 16.851 21.7666C15.5865 21.8251 15.2055 21.8371 12.0015 21.8371C8.7975 21.8371 8.4165 21.8251 7.1535 21.7666C5.9835 21.7141 5.3475 21.5191 4.9245 21.3541C4.40255 21.1618 3.93044 20.8547 3.543 20.4556C3.14405 20.0686 2.83701 19.597 2.6445 19.0756C2.4795 18.6526 2.2845 18.0166 2.232 16.8466C2.175 15.5806 2.1615 15.2026 2.1615 11.9986C2.1615 8.79457 2.175 8.41357 2.232 7.14907C2.286 5.97907 2.481 5.34457 2.6445 4.92157C2.838 4.39957 3.144 3.92707 3.543 3.54007C3.93043 3.14163 4.40188 2.83467 4.923 2.64157C5.3475 2.47657 5.9835 2.28157 7.1535 2.22907C8.418 2.17207 8.7975 2.15857 12.0015 2.15857L12 2.16007ZM12.0015 -0.00292969C8.7435 -0.00292969 8.334 0.0120703 7.0545 0.0690703C5.7735 0.12907 4.902 0.33307 4.14 0.62857C3.33938 0.930274 2.61407 1.40272 2.0145 2.01307C1.404 2.61307 0.9315 3.33757 0.63 4.13857C0.333 4.90057 0.1305 5.77357 0.072 7.05157C0.015 8.32807 0 8.73907 0 12.0001C0 15.2581 0.015 15.6676 0.072 16.9471C0.132 18.2266 0.333 19.0966 0.63 19.8586C0.93 20.6596 1.404 21.3841 2.0145 21.9841C2.6145 22.5946 3.339 23.0671 4.14 23.3686C4.902 23.6656 5.775 23.8681 7.053 23.9266C8.331 23.9851 8.742 23.9986 12.0015 23.9986C15.2595 23.9986 15.669 23.9836 16.9485 23.9266C18.228 23.8666 19.098 23.6656 19.8585 23.3686C20.6559 23.0606 21.3802 22.5892 21.9846 21.9847C22.5891 21.3802 23.0605 20.656 23.3685 19.8586C23.667 19.0966 23.8695 18.2236 23.928 16.9456C23.9865 15.6691 24 15.2581 24 11.9986C24 8.73907 23.985 8.33107 23.928 7.05157C23.868 5.77207 23.667 4.90207 23.37 4.14157C23.0687 3.34033 22.5962 2.61446 21.9855 2.01457C21.3859 1.40422 20.6606 0.931774 19.86 0.63007C19.098 0.33457 18.225 0.13057 16.947 0.0735703C15.6705 0.0120703 15.2595 -0.00142969 12 -0.00142969L12.0015 -0.00292969Z" fill="black"/>
<path d="M11.9999 5.83806C10.3656 5.83806 8.7983 6.48727 7.6427 7.64287C6.4871 8.79847 5.83789 10.3658 5.83789 12.0001C5.83789 13.6343 6.4871 15.2017 7.6427 16.3573C8.7983 17.5129 10.3656 18.1621 11.9999 18.1621C13.6342 18.1621 15.2015 17.5129 16.3571 16.3573C17.5127 15.2017 18.1619 13.6343 18.1619 12.0001C18.1619 10.3658 17.5127 8.79847 16.3571 7.64287C15.2015 6.48727 13.6342 5.83806 11.9999 5.83806ZM11.9999 16.0006C11.4679 16.0109 10.9392 15.915 10.4448 15.7185C9.95029 15.5221 9.49995 15.229 9.1201 14.8564C8.74024 14.4838 8.4385 14.0393 8.2325 13.5487C8.02651 13.0581 7.92042 12.5314 7.92042 11.9993C7.92042 11.4672 8.02651 10.9405 8.2325 10.4499C8.4385 9.95936 8.74024 9.51478 9.1201 9.14221C9.49995 8.76964 9.95029 8.47656 10.4448 8.2801C10.9392 8.08365 11.4679 7.98776 11.9999 7.99806C13.0477 8.01835 14.0457 8.44883 14.7795 9.197C15.5133 9.94517 15.9244 10.9513 15.9244 11.9993C15.9244 13.0473 15.5133 14.0535 14.7795 14.8016C14.0457 15.5498 13.0477 15.9803 11.9999 16.0006ZM18.4049 7.03356C18.7868 7.03356 19.1531 6.88185 19.4231 6.6118C19.6932 6.34175 19.8449 5.97548 19.8449 5.59356C19.8449 5.21165 19.6932 4.84538 19.4231 4.57533C19.1531 4.30528 18.7868 4.15356 18.4049 4.15356C18.023 4.15356 17.6567 4.30528 17.3867 4.57533C17.1166 4.84538 16.9649 5.21165 16.9649 5.59356C16.9649 5.97548 17.1166 6.34175 17.3867 6.6118C17.6567 6.88185 18.023 7.03356 18.4049 7.03356Z" fill="black"/>
</g>
<defs>
<clipPath id="clip0_8_16">
<rect width="24" height="24" fill="white"/>
</clipPath>
</defs>
</svg>
