<svg width="24" height="24" viewBox="0 0 24 24" fill="none" xmlns="http://www.w3.org/2000/svg">
<g clip-path="url(#clip0_8_72)">
<path d="M20.1388 3.86109C19.5859 3.30794 18.8909 2.91824 18.1306 2.73496C17.3702 2.55168 16.5741 2.58195 15.8298 2.82242C15.0856 3.0629 14.4222 3.50424 13.9129 4.09777C13.4036 4.69131 13.068 5.41398 12.9433 6.18609L17.8138 11.0566C18.5859 10.9319 19.3086 10.5964 19.9021 10.087C20.4957 9.57768 20.937 8.91432 21.1775 8.17008C21.418 7.42585 21.4482 6.62966 21.265 5.86932C21.0817 5.10898 20.692 4.41402 20.1388 3.86109ZM15.7498 12.1771L11.8213 8.24709C10.2507 10.0355 8.68025 11.824 7.10982 13.6126L3.09732 18.1801C2.7751 18.5487 2.60498 19.026 2.6214 19.5153C2.63781 20.0047 2.83954 20.4695 3.18574 20.8157C3.53194 21.1619 3.99675 21.3636 4.48608 21.38C4.9754 21.3964 5.45269 21.2263 5.82132 20.9041L10.4113 16.8721L15.7513 12.1786L15.7498 12.1771ZM10.6798 6.14109C10.8159 4.92543 11.2925 3.77289 12.0547 2.81611C12.8169 1.85932 13.8337 1.13717 14.9882 0.732749C16.1426 0.328326 17.3878 0.258068 18.5805 0.530059C19.7731 0.802051 20.8647 1.40524 21.7297 2.27021C22.5947 3.13519 23.1979 4.2268 23.4698 5.41944C23.7418 6.61208 23.6716 7.85727 23.2672 9.01175C22.8627 10.1662 22.1406 11.1831 21.1838 11.9452C20.227 12.7074 19.0745 13.184 17.8588 13.3201L11.8978 18.5596L7.30782 22.5931C6.50982 23.2931 5.47545 23.6632 4.41453 23.6286C3.35362 23.5939 2.34563 23.1569 1.59505 22.4064C0.844469 21.6558 0.407517 20.6478 0.372839 19.5869C0.338161 18.526 0.708355 17.4916 1.40832 16.6936L5.42232 12.1261L10.6798 6.14109Z" fill="black"/>
</g>
<defs>
<clipPath id="clip0_8_72">
<rect width="24" height="24" fill="white"/>
</clipPath>
</defs>
</svg>
