<svg width="24" height="24" viewBox="0 0 24 24" fill="none" xmlns="http://www.w3.org/2000/svg">
<path d="M3.36078 1.12154L20.8436 11.2146C20.9813 11.2943 21.0957 11.4088 21.1753 11.5467C21.2548 11.6845 21.2967 11.8409 21.2967 12C21.2967 12.1592 21.2548 12.3155 21.1753 12.4534C21.0957 12.5912 20.9813 12.7057 20.8436 12.7854L3.36078 22.8785C3.22289 22.9581 3.06648 23 2.90726 23C2.74804 23 2.59162 22.9581 2.45372 22.8785C2.31581 22.7989 2.20129 22.6845 2.12165 22.5466C2.042 22.4087 2.00005 22.2523 2 22.0931V1.9069C2.00005 1.74768 2.042 1.59128 2.12165 1.45341C2.20129 1.31554 2.31581 1.20106 2.45372 1.12147C2.59162 1.04188 2.74804 0.999988 2.90726 1C3.06648 1.00001 3.22289 1.04193 3.36078 1.12154Z" fill="black"/>
</svg>
