<svg width="24" height="24" viewBox="0 0 24 24"  xmlns="http://www.w3.org/2000/svg">
<g clip-path="url(#clip0_8_21)">
<path d="M21.7502 12C21.7537 9.88983 21.0691 7.83605 19.8002 6.15L21.6002 4.8C23.1077 6.8055 24.0002 9.3 24.0002 12C24.0002 14.7 23.1077 17.1945 21.6002 19.2L19.8002 17.85C21.0691 16.1639 21.7537 14.1102 21.7502 12ZM12.0002 2.25C10.5049 2.25033 9.02966 2.59461 7.68865 3.25619C6.34763 3.91778 5.17676 4.87895 4.26658 6.06537C3.3564 7.25179 2.73131 8.63167 2.43964 10.0983C2.14798 11.5649 2.19757 13.0789 2.58456 14.5233C2.97156 15.9677 3.68559 17.3037 4.67145 18.4281C5.6573 19.5524 6.88856 20.4349 8.26998 21.0073C9.65141 21.5797 11.146 21.8268 12.6381 21.7293C14.1303 21.6317 15.58 21.1923 16.8752 20.445C17.1338 20.2958 17.4411 20.2555 17.7294 20.3328C18.0177 20.4102 18.2635 20.5989 18.4127 20.8575C18.5619 21.1161 18.6022 21.4233 18.5249 21.7117C18.4475 22 18.2588 22.2458 18.0002 22.395C16.1759 23.4472 14.1068 24.0007 12.0008 24C9.89486 23.9993 7.82615 23.4444 6.00255 22.391C4.17895 21.3376 2.66469 19.8228 1.6119 17.9988C0.559117 16.1749 0.00488281 14.106 0.00488281 12C0.00488281 9.89402 0.559117 7.82512 1.6119 6.00117C2.66469 4.17721 4.17895 2.66244 6.00255 1.60904C7.82615 0.555642 9.89486 0.000710452 12.0008 6.81714e-07C14.1068 -0.000709088 16.1759 0.552828 18.0002 1.605C18.1335 1.67598 18.2511 1.77307 18.3461 1.89049C18.4411 2.0079 18.5114 2.14323 18.553 2.28842C18.5946 2.4336 18.6065 2.58567 18.588 2.73555C18.5695 2.88543 18.5211 3.03006 18.4455 3.16082C18.37 3.29158 18.2689 3.40578 18.1482 3.49663C18.0276 3.58748 17.8899 3.65312 17.7434 3.68962C17.5968 3.72612 17.4444 3.73275 17.2953 3.70911C17.1461 3.68547 17.0033 3.63203 16.8752 3.552C15.3935 2.69556 13.7116 2.24637 12.0002 2.25Z" />
<path d="M16.8887 12.0001C16.8887 10.9861 16.5467 10.0561 15.9722 9.31361L17.7527 7.93661C18.6212 9.06011 19.1387 10.4716 19.1387 12.0001C19.1409 13.4712 18.6526 14.9011 17.7512 16.0636L15.9722 14.6866C16.5467 13.9441 16.8887 13.0141 16.8887 12.0001ZM13.1252 6.17261L6.91667 9.75761C6.52331 9.9851 6.1967 10.3121 5.96964 10.7057C5.74258 11.0993 5.62305 11.5457 5.62305 12.0001C5.62305 12.4545 5.74258 12.9009 5.96964 13.2945C6.1967 13.6882 6.52331 14.0151 6.91667 14.2426L13.1252 17.8276V6.17261Z" />
</g>
<defs>
<clipPath id="clip0_8_21">
<rect width="24" height="24" fill="white"/>
</clipPath>
</defs>
</svg>
