<svg width="24" height="24" viewBox="0 0 24 24" fill="none" xmlns="http://www.w3.org/2000/svg">
<path d="M7.45523 0.704987C7.24455 0.915925 7.12622 1.20186 7.12622 1.49999C7.12622 1.79811 7.24455 2.08405 7.45523 2.29499L17.1602 12L7.45523 21.705C7.3447 21.808 7.25605 21.9322 7.19456 22.0702C7.13307 22.2082 7.10001 22.3571 7.09734 22.5082C7.09468 22.6593 7.12246 22.8093 7.17905 22.9494C7.23563 23.0895 7.31984 23.2167 7.42667 23.3235C7.5335 23.4304 7.66075 23.5146 7.80083 23.5712C7.94092 23.6278 8.09096 23.6555 8.24201 23.6529C8.39307 23.6502 8.54204 23.6171 8.68004 23.5557C8.81804 23.4942 8.94224 23.4055 9.04523 23.295L20.3402 12L9.04523 0.704987C8.83429 0.494311 8.54836 0.375977 8.25023 0.375977C7.9521 0.375977 7.66617 0.494311 7.45523 0.704987Z" fill="black"/>
</svg>
