<svg width="24" height="24" viewBox="0 0 24 24"  xmlns="http://www.w3.org/2000/svg">
<path d="M15.356 10.5581C15.356 13.1811 13.196 15.3081 10.533 15.3081C7.86898 15.3081 5.70898 13.1811 5.70898 10.5581C5.70898 7.93511 7.86898 5.80811 10.533 5.80811C13.197 5.80811 15.356 7.93511 15.356 10.5581Z" />
<path d="M1.12598 10.5581C1.12598 5.41808 5.35198 1.27808 10.533 1.27808C15.713 1.27808 19.94 5.41808 19.94 10.5581C19.942 12.6788 19.2079 14.7344 17.863 16.3741L22.207 20.7181C22.3891 20.9067 22.4899 21.1593 22.4877 21.4215C22.4854 21.6837 22.3802 21.9345 22.1948 22.1199C22.0094 22.3053 21.7586 22.4105 21.4964 22.4128C21.2342 22.415 20.9816 22.3142 20.793 22.1321L16.44 17.7791C14.7615 19.1155 12.6785 19.8412 10.533 19.8371C5.35298 19.8371 1.12598 15.6981 1.12598 10.5581ZM10.533 3.27808C6.42798 3.27808 3.12598 6.55208 3.12598 10.5581C3.12598 14.5641 6.42798 17.8371 10.533 17.8371C14.638 17.8371 17.94 14.5641 17.94 10.5571C17.94 6.55208 14.638 3.27808 10.533 3.27808Z" />
</svg>
