<svg width="24" height="24" viewBox="0 0 24 24" xmlns="http://www.w3.org/2000/svg">
<path d="M23.2 11.362L21.572 10.757C21.4344 10.6921 21.315 10.5943 21.2243 10.4722C21.1335 10.3501 21.0744 10.2075 21.052 10.057C21.014 9.91832 21.0105 9.77244 21.0419 9.6321C21.0732 9.49177 21.1385 9.36126 21.232 9.252L22.432 8.002C22.5759 7.85256 22.6698 7.66207 22.7006 7.45692C22.7314 7.25177 22.6977 7.04212 22.604 6.857C21.8536 5.36973 20.8036 4.05381 19.52 2.992C19.3603 2.85981 19.1635 2.78053 18.9567 2.76512C18.75 2.74971 18.5436 2.79894 18.366 2.906L17.016 3.72C16.8713 3.79397 16.7105 3.83086 16.548 3.82737C16.3855 3.82388 16.2264 3.78011 16.085 3.7C15.937 3.63677 15.8062 3.53908 15.7036 3.41505C15.6009 3.29102 15.5294 3.14426 15.495 2.987L15.289 1.413C15.2619 1.20752 15.1716 1.01555 15.0306 0.863634C14.8896 0.711718 14.7049 0.607362 14.502 0.564999C12.8711 0.22602 11.1879 0.22602 9.55703 0.564999C9.35451 0.607729 9.17025 0.712246 9.02964 0.864133C8.88904 1.01602 8.79903 1.20779 8.77203 1.413L8.57203 2.937C8.53612 3.10209 8.46105 3.25612 8.35315 3.38613C8.24525 3.51613 8.10768 3.61829 7.95203 3.684C7.80485 3.76692 7.63944 3.81214 7.47054 3.81563C7.30165 3.81912 7.13451 3.78077 6.98403 3.704L5.66603 2.909C5.48871 2.8024 5.28268 2.75342 5.07636 2.76883C4.87003 2.78423 4.67356 2.86325 4.51403 2.995C3.23074 4.05816 2.18053 5.37459 1.42903 6.862C1.3361 7.04708 1.30293 7.25645 1.3341 7.46119C1.36527 7.66594 1.45924 7.85595 1.60303 8.005L2.77703 9.223C2.87228 9.33588 2.93863 9.47025 2.97034 9.61451C3.00205 9.75877 2.99817 9.90858 2.95903 10.051C2.93552 10.2044 2.87472 10.3498 2.78197 10.4743C2.68921 10.5987 2.56734 10.6986 2.42703 10.765L0.80903 11.365C0.61464 11.4369 0.44739 11.5674 0.330407 11.7385C0.213424 11.9096 0.15249 12.1128 0.15603 12.32C0.187727 13.9858 0.562172 15.6272 1.25603 17.142C1.34246 17.3299 1.48505 17.4865 1.66414 17.59C1.84324 17.6935 2.05003 17.7389 2.25603 17.72L4.19103 17.537C4.31777 17.538 4.44261 17.5679 4.55598 17.6246C4.66934 17.6813 4.76822 17.7632 4.84503 17.864C4.93376 17.9602 4.99735 18.0767 5.03014 18.2034C5.06294 18.3301 5.06393 18.4629 5.03303 18.59L4.43303 20.412C4.36808 20.6089 4.36591 20.821 4.42682 21.0192C4.48773 21.2173 4.60871 21.3916 4.77303 21.518C5.43303 22.022 6.14203 22.458 6.89003 22.818C7.63803 23.178 8.42203 23.46 9.22803 23.659C9.46919 23.7201 9.72453 23.6879 9.94303 23.569C10.0894 23.4901 10.2138 23.376 10.305 23.237L11.441 21.501C11.518 21.425 11.6093 21.3652 11.7097 21.325C11.8101 21.2849 11.9176 21.2653 12.0257 21.2674C12.1338 21.2694 12.2404 21.2931 12.3392 21.337C12.438 21.3809 12.527 21.4441 12.601 21.523L13.725 23.237C13.8387 23.4103 14.0034 23.5439 14.1963 23.6195C14.3893 23.6951 14.6009 23.7089 14.802 23.659C16.419 23.259 17.935 22.529 19.256 21.514C19.4205 21.3878 19.5417 21.2135 19.6028 21.0153C19.6639 20.8172 19.6619 20.605 19.597 20.408L18.984 18.549C18.9545 18.4265 18.9555 18.2986 18.9869 18.1766C19.0183 18.0546 19.0791 17.9421 19.164 17.849C19.2373 17.7497 19.333 17.6692 19.4434 17.6141C19.5538 17.559 19.6757 17.5308 19.799 17.532L21.744 17.715C21.9502 17.7348 22.1573 17.6898 22.3366 17.5861C22.5159 17.4825 22.6583 17.3255 22.744 17.137C23.4379 15.6222 23.8123 13.9808 23.844 12.315C23.8479 12.1093 23.7882 11.9074 23.6732 11.7369C23.5581 11.5663 23.3922 11.4354 23.2 11.362ZM21.6 14.339C21.497 14.787 21.363 15.227 21.2 15.657L19.987 15.542C19.5322 15.5163 19.0779 15.6 18.6621 15.786C18.2463 15.972 17.8811 16.2549 17.5971 16.611C17.3131 16.9672 17.1186 17.3862 17.0299 17.833C16.9411 18.2798 16.9607 18.7413 17.087 19.179L17.47 20.339C16.7038 20.8468 15.8718 21.2475 14.997 21.53L14.277 20.43C14.0258 20.0597 13.6863 19.7578 13.289 19.5518C12.8918 19.3457 12.4494 19.242 12.002 19.25C11.5628 19.2421 11.1286 19.3441 10.7388 19.5467C10.349 19.7493 10.016 20.046 9.77003 20.41L9.03503 21.53C8.16117 21.2473 7.32986 20.847 6.56403 20.34L6.93403 19.215C7.06091 18.7732 7.08014 18.3073 6.9901 17.8565C6.90007 17.4057 6.7034 16.9831 6.41653 16.6238C6.12967 16.2646 5.76096 15.9793 5.34124 15.7918C4.92152 15.6043 4.463 15.52 4.00403 15.546L2.80403 15.659C2.64193 15.2293 2.5083 14.7893 2.40403 14.342C2.30191 13.8947 2.23041 13.441 2.19003 12.984L3.12003 12.639C3.56322 12.4521 3.95558 12.1624 4.2647 11.7939C4.57383 11.4254 4.79084 10.9886 4.89782 10.5197C5.0048 10.0507 4.99867 9.56304 4.87995 9.09692C4.76123 8.63081 4.53331 8.19963 4.21503 7.839L3.55003 7.15C4.02035 6.36062 4.59559 5.6387 5.26003 5.004L5.94803 5.419C6.38338 5.66989 6.87477 5.8074 7.37711 5.81894C7.87944 5.83047 8.37663 5.71564 8.82303 5.485C9.27698 5.27672 9.67223 4.95918 9.97343 4.56078C10.2746 4.16238 10.4724 3.69553 10.549 3.202L10.654 2.402C11.5648 2.278 12.4882 2.278 13.399 2.402L13.509 3.246C13.5939 3.73138 13.7933 4.18953 14.0906 4.58244C14.388 4.97534 14.7747 5.29169 15.2188 5.50522C15.6628 5.71875 16.1514 5.82331 16.644 5.81023C17.1366 5.79714 17.6189 5.6668 18.051 5.43L18.772 4.995C19.4366 5.63008 20.0125 6.35193 20.484 7.141L19.79 7.861C19.4723 8.21837 19.2444 8.64641 19.1254 9.10954C19.0063 9.57268 18.9995 10.0575 19.1056 10.5238C19.2116 10.9901 19.4273 11.4244 19.7349 11.7905C20.0425 12.1567 20.433 12.4441 20.874 12.629L21.816 12.979C21.774 13.436 21.702 13.891 21.6 14.339ZM12 7.001C11.0111 7.001 10.0444 7.29424 9.22218 7.84365C8.39993 8.39306 7.75907 9.17395 7.38063 10.0876C7.00219 11.0012 6.90318 12.0065 7.0961 12.9764C7.28903 13.9464 7.76523 14.8373 8.4645 15.5365C9.16376 16.2358 10.0547 16.712 11.0246 16.9049C11.9945 17.0979 12.9998 16.9988 13.9134 16.6204C14.8271 16.242 15.608 15.6011 16.1574 14.7788C16.7068 13.9566 17 12.9899 17 12.001C16.9984 10.6766 16.4721 9.40682 15.5363 8.46969C14.6005 7.53255 13.3314 7.00444 12.007 7.001H12ZM12 15.001C11.2047 15.0001 10.4423 14.6833 9.88035 14.1205C9.31845 13.5576 9.00307 12.7946 9.00353 11.9993C9.00399 11.2039 9.32027 10.4413 9.88283 9.87906C10.4454 9.31683 11.2082 9.001 12.0035 9.001C12.7989 9.001 13.5617 9.31683 14.1242 9.87906C14.6868 10.4413 15.0031 11.2039 15.0035 11.9993C15.004 12.7946 14.6886 13.5576 14.1267 14.1205C13.5648 14.6833 12.8024 15.0001 12.007 15.001H12Z"/>
</svg>
