<svg width="24" height="24" viewBox="0 0 24 24" xmlns="http://www.w3.org/2000/svg">
<path d="M19.3125 2.99999C18.8649 2.99999 18.4357 3.17778 18.1193 3.49424C17.8028 3.81071 17.625 4.23993 17.625 4.68749C17.625 5.13504 17.8028 5.56426 18.1193 5.88073C18.4357 6.1972 18.8649 6.37499 19.3125 6.37499C19.7601 6.37499 20.1893 6.1972 20.5057 5.88073C20.8222 5.56426 21 5.13504 21 4.68749C21 4.23993 20.8222 3.81071 20.5057 3.49424C20.1893 3.17778 19.7601 2.99999 19.3125 2.99999ZM15.375 4.68749C15.3749 3.77516 15.6917 2.89111 16.2711 2.18642C16.8506 1.48172 17.6567 1.00011 18.5519 0.823866C19.447 0.647627 20.3756 0.787702 21.1789 1.22016C21.9822 1.65261 22.6105 2.3506 22.9562 3.19487C23.302 4.03914 23.3439 4.97728 23.0747 5.84899C22.8055 6.7207 22.242 7.47189 21.4804 7.97419C20.7188 8.47649 19.8064 8.69873 18.8991 8.60294C17.9918 8.50714 17.1459 8.09926 16.506 7.44899L8.625 12L16.506 16.551C17.1698 15.8774 18.0539 15.4652 18.9966 15.3898C19.9393 15.3144 20.8776 15.5808 21.6401 16.1403C22.4025 16.6999 22.9381 17.5151 23.1489 18.437C23.3598 19.3589 23.2317 20.3259 22.7883 21.1612C22.3448 21.9965 21.6155 22.6442 20.7337 22.9861C19.852 23.3279 18.8766 23.341 17.986 23.0228C17.0954 22.7047 16.3491 22.0767 15.8834 21.2536C15.4178 20.4304 15.2639 19.4672 15.45 18.54L7.95 14.2065C7.4776 14.9043 6.79378 15.4322 5.99906 15.7125C5.20435 15.9928 4.34066 16.0108 3.53499 15.7637C2.72931 15.5167 2.02415 15.0177 1.52317 14.34C1.02219 13.6624 0.751831 12.8419 0.751831 11.9992C0.751831 11.1565 1.02219 10.3361 1.52317 9.65844C2.02415 8.98082 2.72931 8.4818 3.53499 8.23475C4.34066 7.98769 5.20435 8.00564 5.99906 8.28595C6.79378 8.56626 7.4776 9.09414 7.95 9.79199L15.45 5.45999C15.3991 5.20513 15.3735 4.94588 15.3735 4.68599L15.375 4.68749ZM4.6875 10.3125C4.23995 10.3125 3.81072 10.4903 3.49426 10.8067C3.17779 11.1232 3 11.5524 3 12C3 12.4475 3.17779 12.8768 3.49426 13.1932C3.81072 13.5097 4.23995 13.6875 4.6875 13.6875C5.13505 13.6875 5.56427 13.5097 5.88074 13.1932C6.19721 12.8768 6.375 12.4475 6.375 12C6.375 11.5524 6.19721 11.1232 5.88074 10.8067C5.56427 10.4903 5.13505 10.3125 4.6875 10.3125ZM19.3125 17.625C19.0909 17.625 18.8715 17.6686 18.6667 17.7534C18.462 17.8382 18.276 17.9625 18.1193 18.1192C17.9626 18.2759 17.8383 18.462 17.7535 18.6667C17.6686 18.8714 17.625 19.0909 17.625 19.3125C17.625 19.5341 17.6686 19.7535 17.7535 19.9583C17.8383 20.163 17.9626 20.349 18.1193 20.5057C18.276 20.6624 18.462 20.7867 18.6667 20.8715C18.8715 20.9563 19.0909 21 19.3125 21C19.7601 21 20.1893 20.8222 20.5057 20.5057C20.8222 20.1893 21 19.76 21 19.3125C21 18.8649 20.8222 18.4357 20.5057 18.1192C20.1893 17.8028 19.7601 17.625 19.3125 17.625Z"/>
</svg>
