<svg width="24" height="24" viewBox="0 0 24 24"  xmlns="http://www.w3.org/2000/svg">
<path d="M14.6113 1.27495C14.7824 1.37375 14.9245 1.51589 15.0233 1.68704C15.122 1.8582 15.1739 2.05235 15.1738 2.24995V21.75C15.1739 21.9475 15.1221 22.1416 15.0234 22.3127C14.9247 22.4838 14.7827 22.6259 14.6116 22.7248C14.4406 22.8236 14.2465 22.8756 14.049 22.8757C13.8515 22.8757 13.6574 22.8237 13.4863 22.725L3.09881 16.725C1.84811 15.9998 0.935842 14.8084 0.561897 13.4119C0.187953 12.0154 0.382824 10.5276 1.10381 9.27445C1.58208 8.44501 2.27009 7.75596 3.09881 7.27645L13.4863 1.27645C13.6573 1.17771 13.8513 1.12573 14.0488 1.12573C14.2463 1.12573 14.4403 1.17621 14.6113 1.27495ZM4.22531 9.22495C3.73927 9.50704 3.33584 9.91185 3.0554 10.3989C2.77496 10.8859 2.62736 11.438 2.62736 12C2.62736 12.5619 2.77496 13.1141 3.0554 13.6011C3.33584 14.0881 3.73927 14.4929 4.22531 14.775L12.9253 19.8V4.19995L4.22531 9.22495ZM17.2498 18.3555C18.5587 17.8853 19.6905 17.0226 20.4906 15.8851C21.2907 14.7475 21.7201 13.3907 21.7201 12C21.7201 10.6092 21.2907 9.25238 20.4906 8.11485C19.6905 6.97732 18.5587 6.11456 17.2498 5.64445V8.11945C17.9269 8.51619 18.4884 9.08314 18.8786 9.76401C19.2687 10.4449 19.474 11.216 19.474 12.0007C19.474 12.7854 19.2687 13.5565 18.8786 14.2374C18.4884 14.9183 17.9269 15.4852 17.2498 15.882V18.3555Z" />
</svg>
