<svg width="24" height="24" viewBox="0 0 24 24"  xmlns="http://www.w3.org/2000/svg">
<path d="M20.31 5.8336C21.2682 5.27109 21.9814 4.37062 22.3095 3.3091C21.4171 3.84432 20.4378 4.21899 19.416 4.4161C18.9961 3.96417 18.4875 3.60367 17.922 3.3571C17.3466 3.10296 16.724 2.97313 16.095 2.9761C15.4965 2.96693 14.9025 3.08054 14.3496 3.30989C13.7968 3.53924 13.2968 3.87948 12.8805 4.3096C12.4497 4.72756 12.1092 5.22935 11.8798 5.78402C11.6505 6.33869 11.5372 6.93447 11.547 7.5346C11.547 7.8526 11.5875 8.1976 11.667 8.5711C9.84487 8.48544 8.06252 8.00865 6.441 7.1731C4.83914 6.3555 3.42749 5.20962 2.298 3.8101C1.89086 4.50247 1.67692 5.29139 1.6785 6.0946C1.6785 6.8731 1.8585 7.5946 2.22 8.2621C2.58 8.9296 3.075 9.4696 3.702 9.8821C2.97932 9.87076 2.27109 9.67785 1.6425 9.3211V9.3811C1.6425 10.4686 1.9875 11.4286 2.6775 12.2611C3.33533 13.0753 4.25883 13.6318 5.286 13.8331C4.61959 14.0216 3.91811 14.0504 3.2385 13.9171C3.51581 14.8183 4.07464 15.6068 4.833 16.1671C5.59624 16.749 6.52824 17.0665 7.488 17.0716C5.88419 18.3545 3.88667 19.0443 1.833 19.0246C1.4685 19.0246 1.107 19.0006 0.75 18.9526C2.82388 20.3044 5.24951 21.0164 7.725 21.0001C9.0825 21.0001 10.3695 20.8201 11.583 20.4586C12.798 20.0986 13.872 19.6036 14.8035 18.9766C15.732 18.3534 16.58 17.6179 17.328 16.7866C18.078 15.9526 18.6945 15.0541 19.179 14.0896C19.6578 13.1399 20.0291 12.1397 20.286 11.1076C20.5854 9.91749 20.7097 8.69008 20.655 7.4641C21.5416 6.82233 22.3074 6.02856 22.917 5.1196C22.077 5.4931 21.207 5.7301 20.31 5.8336Z" />
</svg>
